<?xml version="1.0" ?><svg viewBox="0 0 32 32" xmlns="http://www.w3.org/2000/svg"><title/><g data-name="laptop, notebook, technology, computer, desktop, screen, internet, monitor, pc, office" id="laptop_notebook_technology_computer_desktop_screen_internet_monitor_pc_office"><path d="M30,5a3,3,0,0,0-3-3H5A3,3,0,0,0,2,5V21a3,3,0,0,0,.78,2A3,3,0,0,0,2,25v2a3,3,0,0,0,3,3H27a3,3,0,0,0,3-3V25a3,3,0,0,0-.78-2A3,3,0,0,0,30,21ZM4,5A1,1,0,0,1,5,4H27a1,1,0,0,1,1,1V21a1,1,0,0,1-1,1H21a1,1,0,0,0-1,1v1H12V23a1,1,0,0,0-1-1H5a1,1,0,0,1-1-1ZM28,27a1,1,0,0,1-1,1H5a1,1,0,0,1-1-1V25a1,1,0,0,1,1-1h5a2,2,0,0,0,2,2h8a2,2,0,0,0,2-2h5a1,1,0,0,1,1,1Z"/><path d="M7,20H25a1,1,0,0,0,1-1V7a1,1,0,0,0-1-1H7A1,1,0,0,0,6,7V19A1,1,0,0,0,7,20ZM8,8H24V18H8Z"/></g></svg>