<svg xmlns="http://www.w3.org/2000/svg" xmlns:xlink="http://www.w3.org/1999/xlink" viewBox="0 0 73.71 29.01"><defs><style>.cls-1{fill:url(#linear-gradient);}.cls-2{fill:url(#linear-gradient-2);}.cls-3{fill:url(#linear-gradient-3);}.cls-4{fill:url(#linear-gradient-4);}.cls-5{fill:url(#linear-gradient-5);}.cls-6{fill:url(#linear-gradient-6);}.cls-7{fill:url(#linear-gradient-7);}</style><linearGradient id="linear-gradient" x1="32.95" y1="13.28" x2="32.95" y2="17.85" gradientUnits="userSpaceOnUse"><stop offset="0" stop-color="#eba0c3"/><stop offset="1" stop-color="#654b9b"/></linearGradient><linearGradient id="linear-gradient-2" x1="69.14" y1="16.08" x2="69.14" y2="26.22" xlink:href="#linear-gradient"/><linearGradient id="linear-gradient-3" x1="60.82" y1="23.42" x2="60.82" y2="29.01" xlink:href="#linear-gradient"/><linearGradient id="linear-gradient-4" x1="4.83" y1="0" x2="4.83" y2="10.72" xlink:href="#linear-gradient"/><linearGradient id="linear-gradient-5" x1="18.34" y1="3.39" x2="18.34" y2="22.66" xlink:href="#linear-gradient"/><linearGradient id="linear-gradient-6" x1="32.95" y1="7.72" x2="32.95" y2="22.76" xlink:href="#linear-gradient"/><linearGradient id="linear-gradient-7" x1="50.95" y1="8.29" x2="50.95" y2="22.13" xlink:href="#linear-gradient"/></defs><title>Asset 5</title><g id="Layer_2" data-name="Layer 2"><g id="Layer_1-2" data-name="Layer 1"><path class="cls-1" d="M33,13.28a3,3,0,0,1-.62,1.59,2.42,2.42,0,0,1-1.47.5,2.6,2.6,0,0,1,1.49.51,3.66,3.66,0,0,1,.6,2,3.61,3.61,0,0,1,.59-1.94A2.65,2.65,0,0,1,35,15.36a2.21,2.21,0,0,1-1.45-.49A2.9,2.9,0,0,1,33,13.28Z"/><path class="cls-2" d="M69.2,16.08a6.44,6.44,0,0,1-1.37,3.53,5.33,5.33,0,0,1-3.25,1.09,5.68,5.68,0,0,1,3.29,1.15c1.22,1.17,1.33,4.37,1.33,4.37s.12-3.16,1.32-4.32a5.81,5.81,0,0,1,3.19-1.21A4.91,4.91,0,0,1,70.5,19.6,6.5,6.5,0,0,1,69.2,16.08Z"/><path class="cls-3" d="M60.86,23.42a3.65,3.65,0,0,1-.76,1.95,2.94,2.94,0,0,1-1.8.6,3.1,3.1,0,0,1,1.82.63A4.43,4.43,0,0,1,60.86,29a4.44,4.44,0,0,1,.72-2.38A3.18,3.18,0,0,1,63.34,26a2.7,2.7,0,0,1-1.77-.61A3.57,3.57,0,0,1,60.86,23.42Z"/><path class="cls-4" d="M4.89,0A6.8,6.8,0,0,1,3.44,3.73,5.63,5.63,0,0,1,0,4.89,6,6,0,0,1,3.49,6.1c1.29,1.24,1.4,4.62,1.4,4.62S5,7.38,6.29,6.16A6.06,6.06,0,0,1,9.66,4.88,5.2,5.2,0,0,1,6.27,3.73,6.91,6.91,0,0,1,4.89,0Z"/><path class="cls-5" d="M14.06,15.5a3.21,3.21,0,0,1,1.36.28.91.91,0,0,1,.62.83A3.53,3.53,0,0,0,16.66,19a2,2,0,0,0,1.61.66,2.59,2.59,0,0,0,1.65-.56,2,2,0,0,0,.61-1.58,2.69,2.69,0,0,0-.81-1.92,9.79,9.79,0,0,0-2.66-1.77,12.61,12.61,0,0,1-3.51-2.42,4.24,4.24,0,0,1-1.11-3,4.5,4.5,0,0,1,1.61-3.7,7,7,0,0,1,4.42-1.34,7.5,7.5,0,0,1,2.37.37,5.54,5.54,0,0,1,1.9,1.1A4.94,4.94,0,0,1,24,6.72a6.56,6.56,0,0,1,.41,2.63.92.92,0,0,1-.62.84,3.06,3.06,0,0,1-1.4.31A3.36,3.36,0,0,1,21,10.19c-.45-.2-.65-.49-.61-.87a3.39,3.39,0,0,0-.43-2.18,1.58,1.58,0,0,0-1.44-.72A2.34,2.34,0,0,0,17,6.87a1.47,1.47,0,0,0-.52,1.24,2.33,2.33,0,0,0,.81,1.81,10.58,10.58,0,0,0,2.24,1.47,14.5,14.5,0,0,1,3.79,2.77,4.75,4.75,0,0,1,1.25,3.31,5,5,0,0,1-.45,2.15,4.57,4.57,0,0,1-1.28,1.64,6.12,6.12,0,0,1-2,1,8.83,8.83,0,0,1-2.6.36,7.79,7.79,0,0,1-2.69-.43,5.39,5.39,0,0,1-2-1.22,5.17,5.17,0,0,1-1.2-1.91,6.66,6.66,0,0,1-.33-2.49,1,1,0,0,1,.64-.83A3.08,3.08,0,0,1,14.06,15.5Z"/><path class="cls-6" d="M25.21,15.37a8.09,8.09,0,0,1,.57-3.06,7.46,7.46,0,0,1,1.6-2.42A7.22,7.22,0,0,1,29.81,8.3a8.68,8.68,0,0,1,6.24,0,7.17,7.17,0,0,1,4.07,4,8.09,8.09,0,0,1,.57,3.06,7.71,7.71,0,0,1-.54,2.9,7,7,0,0,1-1.55,2.34,7.08,7.08,0,0,1-2.42,1.57,8.3,8.3,0,0,1-3.2.58,8.38,8.38,0,0,1-3.21-.58,7.39,7.39,0,0,1-2.46-1.56,6.59,6.59,0,0,1-1.56-2.34A7.76,7.76,0,0,1,25.21,15.37Zm11.46-.06a4.9,4.9,0,0,0-1.08-3.4,3.47,3.47,0,0,0-2.67-1.19,3.36,3.36,0,0,0-2.65,1.21,5,5,0,0,0-1.05,3.38,4.65,4.65,0,0,0,1,3.24A3.51,3.51,0,0,0,33,19.7a3.31,3.31,0,0,0,2.69-1.15A4.84,4.84,0,0,0,36.67,15.31Z"/><path class="cls-7" d="M52.79,21.25c0,.28-.24.48-.65.63a4.17,4.17,0,0,1-1.33.22,3,3,0,0,1-1.08-.18.66.66,0,0,1-.48-.67v-7A5.71,5.71,0,0,0,48.8,12a1.18,1.18,0,0,0-1-.79c-.94,0-1.77.75-2.47,2.24l.06-.09c0,.64,0,1.3,0,2s0,1.35,0,2c0,.89,0,1.68,0,2.37s0,1.17,0,1.44-.27.55-.7.74a3.37,3.37,0,0,1-1.33.28,2.81,2.81,0,0,1-1.13-.21.67.67,0,0,1-.5-.64c0-.27,0-.76,0-1.48s0-1.54,0-2.47,0-1.88,0-2.85,0-1.87,0-2.7c0-.62,0-1.16,0-1.61s0-.79,0-1,.21-.49.63-.64a3.68,3.68,0,0,1,1.35-.24,3.79,3.79,0,0,1,1.1.16.7.7,0,0,1,.55.54,5.14,5.14,0,0,1,2.44-.55,4.52,4.52,0,0,1,3.72,1.45,4.83,4.83,0,0,1,3.61-1.45A4.47,4.47,0,0,1,58.86,10a7.19,7.19,0,0,1,1.31,4.26q0,.41,0,1v1q0,1.24,0,2.55c0,.88,0,1.7-.06,2.47,0,.28-.23.48-.65.63a4.15,4.15,0,0,1-1.32.22,3.08,3.08,0,0,1-1.09-.18.66.66,0,0,1-.48-.67q0-.84,0-1.68V16.05q0-.9,0-1.83A5.71,5.71,0,0,0,56.12,12a1.17,1.17,0,0,0-1-.79,1.85,1.85,0,0,0-1.22.52,5,5,0,0,0-1.11,1.46l.09,1.13q0,.44,0,.93v1c0,.83,0,1.68,0,2.54s0,1.68-.06,2.45Z"/></g></g></svg>