<svg xmlns="http://www.w3.org/2000/svg" viewBox="0 0 100.27 95.68"><defs><style>.cls-1{fill:#fff;}</style></defs><title>Asset 4</title><g id="Layer_2" data-name="Layer 2"><g id="Layer_1-2" data-name="Layer 1"><path class="cls-1" d="M51.67,81.69,77.54,95.3a3.3,3.3,0,0,0,4.79-3.48L77.39,63a3.3,3.3,0,0,1,.94-2.92L99.27,39.68a3.3,3.3,0,0,0-1.83-5.62l-28.93-4.2A3.3,3.3,0,0,1,66,28.05L53.09,1.84a3.29,3.29,0,0,0-5.91,0L34.24,28.05a3.3,3.3,0,0,1-2.48,1.81L2.83,34.06A3.29,3.29,0,0,0,1,39.68L21.93,60.09A3.3,3.3,0,0,1,22.88,63L17.94,91.82a3.3,3.3,0,0,0,4.78,3.48L48.6,81.69A3.33,3.33,0,0,1,51.67,81.69Z"/></g></g></svg>